<mxfile host="app.diagrams.net" modified="2024-02-16T12:34:36.365Z" agent="Mozilla/5.0 (Windows NT 10.0; Win64; x64; rv:122.0) Gecko/20100101 Firefox/122.0" version="23.1.5" etag="CLxwZCoBWV8kPhL5x2Oh" type="github">
  <diagram name="Page-1" id="iBMX7k2u6XcLkgqnjjd-">
    <mxGraphModel>
      <root>
        <mxCell id="0" />
        <mxCell id="1" parent="0" />
      </root>
    </mxGraphModel>
  </diagram>
</mxfile>
